<svg width="37" height="37" viewBox="0 0 37 37" fill="none" xmlns="http://www.w3.org/2000/svg">
<path d="M19.7309 36.755H2.41359C1.31112 36.755 0.417969 35.8613 0.417969 34.7592V2.59302C0.417969 1.49069 1.31126 0.597412 2.41359 0.597412H34.5801C35.6821 0.597412 36.5756 1.49069 36.5756 2.59302V34.7592C36.5756 35.8614 35.682 36.755 34.5801 36.755H25.3662V22.7528H30.0661L30.7698 17.2959H25.3662V13.812C25.3662 12.2321 25.8049 11.1554 28.0705 11.1554L30.9601 11.1542V6.27347C30.4603 6.20697 28.745 6.05839 26.7494 6.05839C22.5832 6.05839 19.7309 8.60144 19.7309 13.2716V17.2959H15.0189V22.7528H19.7309V36.755Z" fill="#0A142F"/>
</svg>
