<svg width="38" height="37" viewBox="0 0 38 37" fill="none" xmlns="http://www.w3.org/2000/svg">
<path d="M34.4376 0.274292H3.62053C2.14472 0.274292 0.949219 1.43535 0.949219 2.86473V33.8457C0.949219 35.2757 2.1455 36.4354 3.62053 36.4354H34.4376C35.9148 36.4354 37.1103 35.2743 37.1103 33.8457V2.86473C37.1111 1.43379 35.914 0.274292 34.4376 0.274292ZM11.9101 30.5462H6.44835V14.2175H11.9108V30.5462H11.9101ZM9.1796 11.987H9.14297C7.31103 11.987 6.12572 10.732 6.12572 9.166C6.12572 7.56422 7.34747 6.34499 9.21544 6.34499C11.0848 6.34499 12.2335 7.56422 12.2701 9.166C12.2701 10.7328 11.0834 11.987 9.1796 11.987ZM31.6053 30.5462H26.1436V21.8086C26.1436 19.6144 25.3534 18.1167 23.3773 18.1167C21.8686 18.1167 20.9702 19.1273 20.5743 20.1022C20.4302 20.4505 20.3951 20.9369 20.3951 21.4255V30.5456H14.9334C14.9334 30.5456 15.0051 15.7473 14.9334 14.2161H20.3951V16.5281C21.1209 15.4157 22.4188 13.8314 25.3183 13.8314C28.9115 13.8314 31.6069 16.166 31.6069 21.1811L31.6053 30.5462Z" fill="black"/>
</svg>
