<svg width="37" height="31" viewBox="0 0 37 31" fill="none" xmlns="http://www.w3.org/2000/svg">
<path d="M36.3412 4.17699C35.0126 4.78201 33.5822 5.19116 32.0817 5.37398C33.614 4.4338 34.7898 2.94301 35.3437 1.16713C33.909 2.03766 32.3237 2.67097 30.6301 3.01048C29.2803 1.53275 27.3511 0.609985 25.2161 0.609985C21.1222 0.609985 17.8008 4.01595 17.8008 8.21627C17.8008 8.81258 17.8645 9.39148 17.9918 9.94863C11.8265 9.63088 6.3616 6.60578 2.70064 1.99849C2.06183 3.12583 1.69679 4.4338 1.69679 5.82665C1.69679 8.46437 3.00625 10.793 4.99696 12.1576C3.78301 12.1206 2.63697 11.7746 1.63525 11.2087V11.3023C1.63525 14.989 4.19261 18.0642 7.58829 18.7606C6.96646 18.9391 6.31067 19.0283 5.63365 19.0283C5.15614 19.0283 4.68923 18.9826 4.23718 18.8934C5.1816 21.9141 7.91937 24.1144 11.1665 24.1731C8.62822 26.2145 5.42779 27.4311 1.95359 27.4311C1.3551 27.4311 0.762981 27.3963 0.183594 27.3266C3.46679 29.4812 7.36757 30.7413 11.5549 30.7413C25.2012 30.7413 32.6611 19.1523 32.6611 9.09986C32.6611 8.76905 32.6547 8.43825 32.642 8.11398C34.0915 7.04105 35.3501 5.7026 36.3412 4.17699Z" fill="#0A142F"/>
</svg>
